<svg width="420" height="146" viewBox="0 0 420 146" fill="none" xmlns="http://www.w3.org/2000/svg">
<path d="M211.419 25.0874C214.613 26.7689 217.214 29.3913 218.868 32.5995C220.728 36.3368 221.635 40.4754 221.511 44.6478V71.2875H212.592V58.9235H187.602V71.2875H178.819V44.6478C178.701 40.4751 179.612 36.3375 181.47 32.5995C183.127 29.3934 185.727 26.7718 188.919 25.0874C192.439 23.4059 196.291 22.5332 200.192 22.5332C204.093 22.5332 207.944 23.4059 211.464 25.0874H211.419ZM212.592 51.4475V43.8271C212.592 39.3902 211.494 36.0385 209.3 33.7719C207.106 31.5053 204.039 30.372 200.102 30.372C196.158 30.372 193.091 31.5053 190.903 33.7719C188.715 36.0385 187.614 39.3902 187.602 43.8271V51.4475H212.592Z" fill="#131419"/>
<path d="M278.965 23.2295V71.2873H270.389V65.173C267.13 69.7001 262.095 71.9667 255.283 71.9727C249.608 71.9727 245.147 70.1991 241.9 66.652C238.654 63.1048 237.027 58.0817 237.021 51.5826V23.2295H245.949V51.2399C245.949 55.4965 246.969 58.71 249.007 60.8803C251.045 63.0507 253.846 64.1389 257.412 64.1449C261.253 64.1449 264.319 62.9906 266.61 60.6819C268.901 58.3733 270.046 54.9283 270.046 50.3471V23.2295H278.965Z" fill="#131419"/>
<path d="M326.744 71.2878L316.923 57.1924C316.309 57.2479 315.692 57.2719 315.075 57.2645H304.253V71.2697H295.334V23.23H315.102C318.832 23.1486 322.537 23.8522 325.978 25.2951C328.881 26.5095 331.355 28.5632 333.084 31.193C334.781 33.932 335.64 37.1075 335.555 40.3284C335.642 43.6358 334.721 46.8913 332.913 49.6622C331.05 52.3456 328.4 54.3843 325.328 55.4969L336.376 71.2878H326.744ZM323.516 33.2582C321.502 31.6108 318.55 30.7872 314.66 30.7872H304.226V49.9778H314.66C318.544 49.9778 321.496 49.1422 323.516 47.4708C324.531 46.5996 325.332 45.506 325.856 44.2751C326.38 43.0442 326.613 41.7091 326.537 40.3735C326.622 39.0341 326.394 37.6932 325.869 36.4578C325.345 35.2224 324.539 34.1267 323.516 33.2582V33.2582Z" fill="#131419"/>
<path d="M381.106 25.0874C384.296 26.7741 386.895 29.3951 388.555 32.5995C390.41 36.3383 391.317 40.4758 391.197 44.6478V71.2875H382.269V58.9235H357.325V71.2875H348.532V44.6478C348.412 40.4758 349.319 36.3383 351.174 32.5995C352.834 29.3951 355.433 26.7741 358.623 25.0874C362.143 23.4059 365.995 22.5332 369.896 22.5332C373.797 22.5332 377.649 23.4059 381.169 25.0874H381.106ZM382.269 51.4475V43.8271C382.269 39.3902 381.172 36.0385 378.977 33.7719C376.783 31.5053 373.717 30.372 369.779 30.372C365.847 30.372 362.781 31.5053 360.58 33.7719C358.38 36.0385 357.295 39.3902 357.325 43.8271V51.4475H382.269Z" fill="#131419"/>
<path d="M405.057 70.1511C404.514 69.622 404.086 68.9855 403.802 68.2822C403.518 67.5788 403.383 66.824 403.407 66.0659C403.376 65.3073 403.5 64.5505 403.769 63.8407C404.038 63.1309 404.448 62.4829 404.974 61.9354C405.5 61.388 406.131 60.9525 406.83 60.655C407.528 60.3575 408.28 60.2041 409.039 60.2041C409.798 60.2041 410.549 60.3575 411.248 60.655C411.946 60.9525 412.577 61.388 413.103 61.9354C413.629 62.4829 414.039 63.1309 414.308 63.8407C414.578 64.5505 414.701 65.3073 414.671 66.0659C414.68 67.1836 414.358 68.2791 413.745 69.2139C413.133 70.1487 412.257 70.881 411.228 71.3181C410.199 71.7553 409.064 71.8777 407.966 71.67C406.867 71.4623 405.855 70.9337 405.057 70.1511V70.1511Z" fill="#131419"/>
<path d="M193.6 95.4736C195.133 97.0067 195.899 99.2342 195.899 102.156V114.006H192.157V102.553C192.279 100.92 191.762 99.3027 190.714 98.0438C190.171 97.5144 189.522 97.1052 188.811 96.8427C188.099 96.5801 187.34 96.4701 186.584 96.5197C185.704 96.476 184.826 96.6136 184.002 96.9239C183.178 97.2341 182.427 97.7105 181.795 98.3233C181.177 99.0106 180.703 99.8148 180.401 100.688C180.099 101.562 179.975 102.487 180.036 103.41V114.006H176.294V93.3543H179.901V96.4746C180.674 95.3905 181.732 94.5415 182.958 94.0217C184.34 93.4175 185.833 93.1102 187.341 93.1198C188.489 93.0684 189.636 93.2505 190.712 93.655C191.788 94.0596 192.77 94.6783 193.6 95.4736V95.4736Z" fill="#131419"/>
<path d="M234.803 104.988H218.057C218.145 105.84 218.402 106.666 218.812 107.419C219.222 108.171 219.778 108.835 220.446 109.371C221.896 110.5 223.696 111.084 225.533 111.021C226.648 111.066 227.759 110.866 228.789 110.436C229.818 110.006 230.741 109.356 231.494 108.532L233.559 110.949C232.612 112.047 231.415 112.901 230.069 113.438C228.59 114.029 227.008 114.32 225.415 114.295C223.398 114.336 221.402 113.874 219.608 112.951C217.967 112.103 216.607 110.796 215.694 109.19C214.808 107.524 214.345 105.666 214.345 103.779C214.345 101.893 214.808 100.034 215.694 98.3685C216.55 96.7934 217.831 95.4903 219.391 94.6079C221.016 93.701 222.851 93.2375 224.712 93.2642C226.559 93.2326 228.381 93.6966 229.988 94.6079C231.523 95.4936 232.774 96.7979 233.595 98.3685C234.491 100.071 234.941 101.973 234.903 103.897C234.889 104.262 234.856 104.626 234.803 104.988V104.988ZM220.176 98.0078C218.957 99.1231 218.201 100.655 218.057 102.3H231.304C231.144 100.665 230.386 99.1462 229.176 98.0348C227.916 96.9665 226.319 96.3801 224.667 96.3801C223.015 96.3801 221.417 96.9665 220.158 98.0348L220.176 98.0078Z" fill="#131419"/>
<path d="M264.924 112.825C264.332 113.324 263.64 113.69 262.895 113.898C262.089 114.149 261.25 114.273 260.406 114.268C259.529 114.323 258.65 114.203 257.82 113.915C256.99 113.627 256.226 113.177 255.572 112.591C254.973 111.953 254.512 111.199 254.217 110.375C253.922 109.551 253.8 108.675 253.859 107.802V96.4663H250.351V93.3821H253.859V88.873H257.601V93.3821H263.535V96.4663H257.61V107.694C257.546 108.627 257.847 109.549 258.449 110.264C258.761 110.575 259.135 110.816 259.547 110.972C259.959 111.127 260.399 111.193 260.839 111.166C261.897 111.194 262.931 110.85 263.761 110.192L264.924 112.825Z" fill="#131419"/>
<path d="M313.551 93.3815L305.84 114.006H302.233L296.272 98.3505L290.248 114.006H286.64L278.966 93.3545H282.51L288.507 109.804L294.748 93.3545H297.904L304.018 109.876L310.169 93.3545L313.551 93.3815Z" fill="#131419"/>
<path d="M333.3 112.906C331.701 112.029 330.375 110.728 329.467 109.146C328.556 107.48 328.079 105.611 328.079 103.712C328.079 101.814 328.556 99.9452 329.467 98.279C330.37 96.6978 331.698 95.4012 333.3 94.5365C335.002 93.6263 336.907 93.1639 338.837 93.1928C340.759 93.1629 342.655 93.6255 344.347 94.5365C345.943 95.4068 347.267 96.7022 348.171 98.279C349.076 99.9469 349.551 101.815 349.551 103.712C349.551 105.61 349.076 107.478 348.171 109.146C347.262 110.724 345.94 112.024 344.347 112.906C342.66 113.831 340.761 114.301 338.837 114.268C336.905 114.3 334.997 113.83 333.3 112.906V112.906ZM342.399 110.084C343.449 109.474 344.307 108.584 344.879 107.514C345.467 106.332 345.772 105.031 345.772 103.712C345.772 102.393 345.467 101.092 344.879 99.9113C344.312 98.8424 343.452 97.9572 342.399 97.3591C341.303 96.7734 340.08 96.467 338.837 96.467C337.595 96.467 336.371 96.7734 335.275 97.3591C334.22 97.9589 333.354 98.8432 332.777 99.9113C332.178 101.089 331.866 102.391 331.866 103.712C331.866 105.034 332.178 106.336 332.777 107.514C333.359 108.583 334.223 109.472 335.275 110.084C336.367 110.681 337.592 110.994 338.837 110.994C340.082 110.994 341.307 110.681 342.399 110.084V110.084Z" fill="#131419"/>
<path d="M374.458 94.1663C375.913 93.5119 377.5 93.2033 379.094 93.2644V96.8717C378.794 96.8369 378.493 96.8219 378.192 96.8266C377.315 96.7789 376.438 96.9146 375.616 97.2252C374.795 97.5358 374.047 98.0143 373.421 98.6302C372.181 100.055 371.556 101.913 371.681 103.798V114.006H367.947V93.3546H371.555V96.8717C372.211 95.6851 373.228 94.7377 374.458 94.1663Z" fill="#131419"/>
<path d="M404.958 104.411L400.674 108.388V114.007H396.932V85.1484H400.674V103.69L411.929 93.4001H416.438L407.753 101.94L417.304 114.007H412.713L404.958 104.411Z" fill="#131419"/>
<path d="M122.924 92.9308L122.744 92.7775C122.382 91.5307 121.819 90.3516 121.075 89.2874L119.515 87.4117C119.433 86.8399 119.315 86.2737 119.164 85.7163L117.026 81.4236L115.8 73.8123L117.18 66.201L119.109 62.5215V62.4133C119.308 61.7375 119.453 61.0469 119.542 60.3482L121.03 58.6257C121.858 57.4907 122.47 56.2128 122.834 54.8561L122.996 54.7298C125.166 52.9359 126.636 50.4356 127.149 47.6668C127.661 44.8981 127.182 42.0374 125.797 39.5859C124.413 37.1343 122.209 35.2481 119.574 34.2576C116.938 33.2672 114.038 33.2356 111.381 34.1684H111.327C109.903 33.7311 108.41 33.5689 106.926 33.6905L104.861 34.0512C104.155 33.7234 103.421 33.4578 102.669 33.2576L98.539 33.0051L98.4398 32.9329L91.2252 30.1644L85.2191 25.0691L82.658 21.0199L82.5407 20.8757C82.1364 20.4433 81.7025 20.0395 81.2421 19.6672L80.4666 17.3766V17.2864C79.9254 16.0765 79.188 14.9643 78.2842 13.9948L78.2301 13.6972C77.7306 10.727 76.2016 8.02733 73.911 6.07152C71.6205 4.1157 68.7147 3.02852 65.7029 3.00055C62.6911 2.97259 59.7656 4.00563 57.4391 5.91857C55.1127 7.83151 53.5338 10.5023 52.9792 13.4627L52.898 13.8595C52.0047 14.7853 51.2649 15.8478 50.7066 17.0069L49.8048 19.4778C49.3756 19.818 48.9661 20.1823 48.5784 20.569L45.7106 24.9068L39.7135 29.7586L32.7515 32.2476L32.5892 32.3377L32.499 32.4009L28.558 32.5632H28.4318C27.6842 32.7459 26.954 32.9933 26.2494 33.3027L24.2473 32.9149H24.2022C22.7478 32.7694 21.279 32.9009 19.8735 33.3027V33.3027C17.2334 32.3149 14.3297 32.2886 11.672 33.2283C9.01442 34.1681 6.7727 36.0138 5.34032 38.4417C3.90794 40.8695 3.37643 43.7243 3.83909 46.5049C4.30175 49.2856 5.72901 51.8144 7.87036 53.6477L7.94251 53.7018C8.28344 55.1017 8.87628 56.428 9.69203 57.6157L11.0357 59.2209C11.1084 59.9586 11.2442 60.6887 11.4416 61.4033L13.2452 65.0647V65.1999L14.4536 72.694L13.0919 80.1881L10.8283 84.5168L10.7562 84.6972C10.6012 85.2116 10.4806 85.7359 10.3954 86.2664L8.75414 88.1512L8.69102 88.2323C7.94841 89.2563 7.3731 90.3917 6.98658 91.5961L6.698 91.8396C4.36021 93.7544 2.77374 96.4333 2.21842 99.4037C1.66309 102.374 2.1746 105.445 3.66272 108.075C5.15083 110.705 7.51994 112.726 10.3522 113.779C13.1844 114.833 16.2977 114.853 19.1431 113.835L19.3234 113.763C20.6302 114.097 21.9831 114.212 23.3275 114.105L25.7173 113.691C26.3027 113.932 26.9057 114.128 27.5209 114.277L32.3547 114.583L39.6774 117.397L45.5663 122.384L45.7286 122.483L47.9471 125.973L48.0192 126.064C48.5374 126.616 49.1049 127.12 49.7146 127.57L50.4451 129.68C51.0424 131.008 51.8871 132.211 52.9341 133.224V133.359C53.3462 136.165 54.7611 138.726 56.9166 140.568C59.0722 142.41 61.8224 143.409 64.6577 143.378H64.775C67.5879 143.432 70.3262 142.472 72.4901 140.674C74.654 138.876 76.0991 136.36 76.5617 133.585V133.341C77.587 132.355 78.4243 131.191 79.0327 129.905L79.8173 127.768C80.3902 127.351 80.9272 126.886 81.4225 126.379L83.8574 122.718L89.9357 117.794L97.2133 115.188L101.722 114.998H101.912C102.507 114.855 103.091 114.671 103.661 114.448L105.898 114.881H105.997C106.41 114.925 106.826 114.946 107.242 114.944C108.152 114.941 109.06 114.835 109.947 114.628L110.091 114.683C111.602 115.268 113.206 115.573 114.826 115.584C117.029 115.552 119.186 114.946 121.083 113.827C122.981 112.707 124.554 111.112 125.648 109.2C127.243 106.618 127.846 103.546 127.345 100.553C126.844 97.5605 125.273 94.8518 122.924 92.9308V92.9308ZM118.586 105.069C116.785 108.323 113.881 110.827 110.398 112.13L108.594 111.454C114.096 106.707 117.872 100.274 119.335 93.1562L120.796 94.4007C121.37 98.107 120.586 101.896 118.586 105.069V105.069ZM82.9466 121.482C82.6309 121.627 82.2973 121.771 81.9456 121.906L82.8023 119.588L84.4706 119.408L83.2712 121.212L82.9466 121.482ZM79.0507 126.695C78.5869 127.022 78.1052 127.323 77.6078 127.597L78.1489 124.675C78.7712 124.521 79.3754 124.368 79.9525 124.197L79.0507 126.695ZM75.8493 132.521C72.7208 135.139 68.7655 136.564 64.6859 136.543C60.6062 136.521 56.6662 135.055 53.5654 132.403L53.0964 129.563C56.7487 131.09 60.6721 131.863 64.6307 131.835H64.9644C68.8711 131.896 72.7502 131.172 76.3723 129.707L75.8493 132.521ZM64.6397 130.528C60.5622 130.555 56.5287 129.683 52.8259 127.975L52.2848 124.729C56.551 125.654 60.9058 126.107 65.271 126.082C69.2988 126.106 73.3184 125.714 77.2651 124.909L76.6699 128.12C72.8885 129.806 68.7789 130.629 64.6397 130.528V130.528ZM49.5433 123.998C50.1385 124.188 50.7607 124.359 51.401 124.512L51.897 127.479C51.3824 127.184 50.8855 126.859 50.4091 126.505L49.5433 123.998ZM46.2697 121.004L45.0432 119.065L46.7747 119.282L47.5954 121.654C47.1895 121.491 46.7928 121.32 46.423 121.14L46.2697 121.004ZM10.8644 104.086C8.90536 100.842 8.19975 96.993 8.88039 93.2645L10.4045 92.0109C11.0163 95.6301 12.2749 99.1095 14.1199 102.283C15.8467 105.404 18.0946 108.207 20.7663 110.57L18.8635 111.238C15.4367 109.873 12.6033 107.339 10.8644 104.086ZM14.7873 65.1639C14.7873 64.7761 14.8775 64.3703 14.9406 63.9554L16.4647 65.7591C16.2302 66.2641 16.0047 66.7691 15.7883 67.2651L14.8144 65.3081L14.7873 65.1639ZM12.3163 59.1487C12.2598 58.5794 12.2357 58.0074 12.2442 57.4353L14.4266 59.3021C14.2462 59.8972 14.0749 60.4924 13.9306 61.1057L12.3163 59.1487ZM11.1259 41.8609C13.0903 38.2922 16.3462 35.6107 20.2253 34.3668L22.8044 35.3318C16.5287 40.295 12.3448 47.4334 11.0808 55.3341L8.99763 53.5304C8.17604 49.5117 8.93854 45.3309 11.1259 41.8609ZM16.2212 44.8369C18.2353 41.2964 21.0068 38.2447 24.3375 35.8999L27.3135 37.0092C21.7114 43.2331 17.4179 50.5199 14.6881 58.4363L12.2893 56.3802C12.7205 52.2784 14.064 48.3251 16.2212 44.8099V44.8369ZM29.2524 35.0252C28.8105 35.44 28.3506 35.927 27.9087 36.3508L25.2033 35.3408C25.7113 35.0449 26.2351 34.7769 26.7724 34.5382L29.2524 35.0252ZM33.3557 33.6995L35.6463 33.6093L34.6182 34.962L32.2465 34.5111C32.6162 34.2225 32.9859 33.952 33.3467 33.7085L33.3557 33.6995ZM97.6642 34.3127C98.034 34.5652 98.4037 34.8538 98.7734 35.1604L96.3205 35.5843C95.9688 35.0973 95.6261 34.6193 95.2834 34.1594L97.6372 34.3037L97.6642 34.3127ZM104.329 35.2777C104.874 35.5481 105.404 35.8492 105.916 36.1795L103.111 37.1715C102.66 36.6845 102.209 36.2156 101.758 35.7737L104.329 35.2777ZM119.885 42.889C122.033 46.4224 122.719 50.6539 121.797 54.6848L119.632 56.4884C118.538 48.5426 114.495 41.2992 108.306 36.1975L111.011 35.2957C114.819 36.6052 117.99 39.3087 119.885 42.8619V42.889ZM116.593 62.1879C116.467 61.6107 116.314 61.0155 116.151 60.3842L118.397 58.5806C118.391 59.1445 118.352 59.7076 118.28 60.267L116.593 62.1879ZM115.637 66.0837L115.565 66.4895L114.582 68.3563C114.384 67.8693 114.176 67.3643 113.951 66.8503L115.529 65.0466C115.571 65.3953 115.607 65.741 115.637 66.0837ZM89.7102 113.483C89.9717 112.96 90.2333 112.428 90.5038 111.896L93.3986 112.446L92.6952 113.348L89.7102 113.483ZM85.5889 117.478C84.9125 117.568 84.2091 117.65 83.4967 117.722L84.3985 115.269L87.1039 115.476L85.8324 117.397L85.5889 117.478ZM51.1575 117.911L50.6435 114.845C50.6478 114.782 50.6478 114.719 50.6435 114.656C59.7789 114.376 70.0777 114.475 79.168 114.944C79.168 114.998 79.168 115.052 79.168 115.106L78.5998 118.146C69.4547 118.693 60.2829 118.615 51.1485 117.911H51.1575ZM78.212 119.958L77.5988 123.241C69.1589 124.98 60.4468 124.919 52.0323 123.06L51.4822 119.733C56.2348 120.103 61.5104 120.292 66.7139 120.292C70.6638 120.319 74.5777 120.175 78.185 119.958H78.212ZM43.7987 117.072L42.5091 115.043C43.4109 114.98 44.3128 114.926 45.2777 114.881L46.1795 117.406C45.3769 117.298 44.5923 117.199 43.8438 117.081L43.7987 117.072ZM36.8728 112.834L36.1513 111.869L38.983 111.382H39.1273C39.4069 111.95 39.6684 112.509 39.9299 113.059L36.8728 112.834ZM31.9579 38.7226C26.9594 46.052 22.4409 53.6973 18.4306 61.6107L15.9687 59.5095C18.6846 51.3766 23.0781 43.9046 28.8646 37.5773L31.9579 38.7226ZM33.6803 39.3719L36.6564 40.4811C32.3727 48.4712 27.1783 57.273 22.2273 64.8302L19.8285 62.7831C23.8986 54.6738 28.5176 46.8519 33.6533 39.3719H33.6803ZM40.3267 33.3839C39.9389 34.1684 39.5331 34.9801 39.1093 35.8007L36.5932 35.3137C37.0802 34.6734 37.5491 34.0602 38.0181 33.5101L40.3267 33.3839ZM87.5819 32.5361L85.7332 32.6534C85.6881 32.5181 85.643 32.3828 85.6069 32.2566L84.7502 29.7676L85.9316 29.9389L87.5819 32.5361ZM92.9928 33.9881C93.4528 34.5923 93.8946 35.2326 94.4087 35.8999L91.8024 36.3508C91.3876 35.449 90.9908 34.6644 90.603 33.8438L92.9928 33.9881ZM110.677 63.8472L108.206 65.8853C103.427 58.1928 98.3676 49.2558 94.2103 41.1485L97.2404 40.0573C102.239 47.674 106.714 55.6223 110.632 63.8472H110.677ZM99.017 39.4441L102.173 38.3258C107.843 44.7918 112.089 52.3779 114.636 60.5917L112.03 62.6748C108.187 54.6557 103.825 46.8957 98.9718 39.4441H99.017ZM113.446 70.2772V70.4936L112.418 72.5227C111.94 71.8102 111.462 71.0798 110.966 70.3222L112.643 68.3924C112.926 69.0296 113.187 69.6579 113.428 70.2772H113.446ZM114.663 85.8515L112.472 83.9667C112.625 83.6601 112.779 83.3355 112.923 83.0649L114.808 85.3195C114.736 85.4728 114.736 85.6621 114.645 85.8515H114.663ZM116.224 86.9788L116.801 87.6732L116.179 87.1411C116.179 87.087 116.188 87.0329 116.206 86.9517L116.224 86.9788ZM98.6923 107.721C103.328 100.829 107.544 93.665 111.318 86.2664L113.834 88.4848C111.187 96.011 107.108 102.953 101.822 108.929L98.6923 107.721ZM85.0568 113.258C85.3184 112.455 85.5889 111.652 85.8775 110.841C87.0048 111.066 88.105 111.31 89.1962 111.571C88.8625 112.23 88.5468 112.879 88.2312 113.519L85.0568 113.258ZM80.4034 112.96C80.6199 111.968 80.8544 110.976 81.1069 110.002C82.3514 110.192 83.5869 110.399 84.8133 110.633C84.5157 111.481 84.2272 112.338 83.9115 113.186C82.7752 113.104 81.5939 113.041 80.3854 112.978L80.4034 112.96ZM45.7647 112.798C45.5031 111.896 45.2236 111.057 44.926 110.183C46.1885 109.975 47.4601 109.795 48.7407 109.632C48.9752 110.633 49.1916 111.634 49.39 112.644L45.7647 112.798ZM41.3999 113.068C41.0933 112.401 40.7776 111.734 40.444 111.048C41.5622 110.805 42.7075 110.579 43.8619 110.381C44.1414 111.211 44.4119 112.04 44.6645 112.861C43.4921 112.942 42.437 113.005 41.3819 113.104L41.3999 113.068ZM38.46 107.026C39.7135 106.611 40.967 106.233 42.2386 105.89C42.5362 106.665 42.8248 107.441 43.1404 108.208C41.8959 108.433 40.6694 108.686 39.461 108.947L38.46 107.026ZM19.8735 84.2463L22.6601 81.9467L22.7864 81.8384C27.2955 89.1612 32.0571 97.5301 36.0251 105.232L35.8447 105.286L32.4088 106.503C27.7646 99.3563 23.5778 91.9225 19.8735 84.2463V84.2463ZM30.8667 107.008L27.5841 108.162C22.4027 102.067 18.4548 95.0221 15.9597 87.4207L18.611 85.2383C22.249 92.7378 26.3418 100.008 30.8667 107.008V107.008ZM78.167 29.1183L78.7351 32.5091C78.7351 32.6534 78.7892 32.7887 78.8163 32.9329C70.1408 33.1855 60.4823 33.0863 51.8429 32.6624L51.9241 32.2566L52.5554 28.8928C61.1007 28.4254 69.6672 28.5007 78.203 29.1183H78.167ZM52.8439 27.3146L53.4842 23.8787C61.3683 22.3872 69.4676 22.4485 77.3283 24.0591L77.9054 27.522C69.5754 26.9466 61.2178 26.8833 52.88 27.3327L52.8439 27.3146ZM88.2673 33.7897C88.7092 34.7546 89.1691 35.7466 89.6741 36.7566C88.8354 36.937 87.9967 37.0993 87.14 37.2617C86.7522 36.1434 86.3915 35.0342 86.0579 33.9249L88.2673 33.7897ZM106.619 67.22C105.853 67.8873 105.095 68.5637 104.356 69.2581C98.2098 61.0833 93.1308 52.1585 89.2413 42.6996C90.2423 42.4201 91.2343 42.1134 92.2263 41.7978C96.4738 50.1576 101.659 59.302 106.619 67.22ZM111.309 74.4345C110.912 75.0027 110.506 75.5798 110.1 76.175C109.352 75.3634 108.612 74.5157 107.882 73.659C108.441 73.0277 109 72.4145 109.568 71.8102C110.136 72.7211 110.713 73.5958 111.291 74.4436L111.309 74.4345ZM92.4247 105.412C91.1441 104.952 89.8545 104.51 88.5559 104.122C92.4643 95.2513 97.4205 86.8801 103.319 79.1871C104.281 80.125 105.27 81.0268 106.286 81.8926C101.533 89.2874 96.564 97.7014 92.4066 105.421L92.4247 105.412ZM49.0924 33.8167C48.8218 35.0973 48.5242 36.3689 48.1906 37.6314C47.397 37.5052 46.6124 37.3789 45.8368 37.2346C46.2697 36.0532 46.6665 34.8719 47.0453 33.6905L49.0924 33.8167ZM101.262 73.4966C101.903 72.8203 102.543 72.1529 103.201 71.5036C104.013 72.5497 104.837 73.5718 105.672 74.5698C105.14 75.1921 104.626 75.8323 104.103 76.4726C103.111 75.4897 102.164 74.5067 101.208 73.4876L101.262 73.4966ZM100.703 72.8654C93.2879 64.4734 87.6685 54.6525 84.1911 44.0072C85.147 43.7998 86.0939 43.5834 87.0408 43.3399C91.0467 53.1456 96.306 62.391 102.687 70.8453C101.993 71.4856 101.344 72.171 100.685 72.8563L100.703 72.8654ZM98.9989 74.7231C91.7447 82.8331 86.1421 92.2801 82.5047 102.535C70.9822 99.9395 59.0432 99.7921 47.4601 102.102C43.9608 91.6863 38.445 82.0613 31.2274 73.7762C39.0763 65.1907 45.0691 55.0779 48.8309 44.0704C59.6502 46.3762 70.819 46.5172 81.693 44.4852C85.2953 55.6521 91.1828 65.9467 98.9809 74.7141L98.9989 74.7231ZM83.9296 43.1595C83.4967 41.7978 83.0999 40.4541 82.7391 39.0563C83.5929 38.942 84.4406 38.8158 85.2823 38.6775C85.7332 39.9491 86.1841 41.2297 86.7252 42.5012C85.7783 42.7627 84.8404 42.9792 83.9115 43.1866L83.9296 43.1595ZM81.4496 43.6465C70.7565 45.6318 59.7773 45.4939 49.1375 43.2407C49.5944 41.8519 50.0183 40.4451 50.4091 39.0202C60.3015 40.356 70.3206 40.4711 80.2411 39.3629C80.5928 40.8329 80.9896 42.2577 81.4315 43.6646L81.4496 43.6465ZM50.7066 38.0012C51.0583 36.6665 51.365 35.2957 51.6535 33.961C60.4462 34.4029 70.3121 34.5021 79.1409 34.2406C79.4024 35.6113 79.691 36.946 80.0427 38.3348C70.2868 39.4166 60.4354 39.3046 50.7066 38.0012V38.0012ZM47.9471 38.6865C47.5683 40.0393 47.1535 41.392 46.7116 42.7086C45.8098 42.4922 44.908 42.2667 44.0061 42.0142C44.5292 40.7697 45.0252 39.5162 45.4851 38.2717L47.9471 38.6865ZM46.432 43.5022C42.8003 54.0079 37.0721 63.6663 29.5951 71.8914C28.9638 71.197 28.3236 70.5206 27.6652 69.8533C34.1355 61.5548 39.5179 52.4629 43.6815 42.7988C44.5472 43.0423 45.4671 43.2768 46.3869 43.5022H46.432ZM28.9909 72.5227C28.053 73.5327 27.0881 74.5217 26.0961 75.4896C25.591 74.8403 25.077 74.2001 24.572 73.5778C25.4197 72.5858 26.2644 71.5698 27.1061 70.5297C27.7464 71.1699 28.3687 71.8373 28.9909 72.5227ZM30.6683 74.3985C37.7511 82.5641 43.1676 92.0368 46.6124 102.283C45.1695 102.589 43.7356 102.932 42.3107 103.311C38.4767 94.1472 33.5437 85.4834 27.6201 77.5097C28.6662 76.4817 29.6823 75.4416 30.6683 74.3894V74.3985ZM47.397 104.654C47.6675 105.586 47.9291 106.515 48.1816 107.441C46.8198 107.621 45.4761 107.82 44.1594 108.045C43.8709 107.243 43.5733 106.431 43.2576 105.619C44.6284 105.259 46.0082 104.934 47.397 104.645V104.654ZM48.2176 104.501C59.2805 102.343 70.6691 102.484 81.675 104.916C81.3774 105.818 81.0978 106.765 80.8273 107.703C70.2855 106.203 59.5934 106.082 49.0202 107.342C48.7677 106.386 48.4972 105.439 48.2176 104.492V104.501ZM82.4866 105.096C83.8303 105.412 85.1921 105.764 86.5088 106.151C86.1841 106.936 85.8685 107.721 85.6069 108.505C84.3173 108.253 83.0187 108.027 81.693 107.82C81.9275 106.9 82.1981 105.989 82.4957 105.087L82.4866 105.096ZM83.2983 102.725C86.8888 92.6348 92.4014 83.3368 99.531 75.3454C100.496 76.4095 101.488 77.4376 102.507 78.4476C96.4975 86.2756 91.4531 94.799 87.4827 103.834C86.112 103.419 84.7141 103.04 83.3073 102.715L83.2983 102.725ZM104.816 77.2211C105.321 76.5989 105.817 75.9947 106.322 75.4175C107.115 76.3193 107.927 77.2211 108.739 78.123L107.611 79.8184C106.7 78.9707 105.763 78.1049 104.816 77.2211ZM109.631 79.151L111.778 81.7212C111.588 82.118 111.39 82.5238 111.2 82.9296L108.72 80.8104L108.603 80.7022C108.982 80.1791 109.325 79.6561 109.667 79.151H109.631ZM107.133 72.8383C106.34 71.9365 105.564 70.9265 104.807 69.9254C105.528 69.2491 106.268 68.5908 107.016 67.9414C107.653 68.9515 108.285 69.9345 108.91 70.8904C108.351 71.5307 107.756 72.171 107.169 72.8383H107.133ZM88.8715 41.9241C88.3845 40.7156 87.9246 39.5072 87.4917 38.3168C88.3936 38.1454 89.2954 37.9651 90.1972 37.7757C90.7202 38.8519 91.2613 39.9431 91.8204 41.0493C90.8555 41.3469 89.8815 41.6445 88.9076 41.9241H88.8715ZM84.8765 37.6765L82.4416 38.0372C82.1259 36.7476 81.8464 35.458 81.5939 34.1504L83.7312 34.0692C84.1189 35.2596 84.5067 36.45 84.9125 37.6765H84.8765ZM81.3684 32.8428C81.3684 32.5903 81.2602 32.3377 81.2241 32.0852L80.7642 29.3257L82.2071 29.47L83.3434 32.7616L81.3684 32.8428ZM49.4802 31.7876C49.4351 32.0311 49.381 32.2746 49.3269 32.5181L47.433 32.4099L48.6144 29.1724L49.9852 29.0641L49.4802 31.7876ZM45.2146 31.8688V31.9229C45.2146 32.0311 45.1424 32.1393 45.1154 32.2385L43.3117 32.0943L44.9891 29.5602L46.0984 29.4339L45.2146 31.8688ZM44.6825 33.5281C44.3308 34.6103 43.952 35.7015 43.5552 36.7927C42.7346 36.6214 41.9229 36.441 41.1113 36.2516C41.6073 35.2596 42.0943 34.2947 42.5542 33.3478L44.6825 33.5281ZM40.6153 37.2346C41.463 37.433 42.3197 37.6314 43.1855 37.8118C42.7436 38.9932 42.2837 40.1655 41.7696 41.3469C40.8227 41.0583 39.8848 40.7427 38.956 40.4451L40.6153 37.2346ZM38.5501 41.1665C39.5061 41.5002 40.471 41.8249 41.436 42.1225C37.4024 51.4565 32.2059 60.2436 25.9698 68.2751C25.2484 67.5807 24.5089 66.9044 23.7604 66.237C28.8556 58.4183 34.1764 49.4091 38.5682 41.1755L38.5501 41.1665ZM23.3185 66.9314C24.049 67.5807 24.7704 68.2481 25.4738 68.9244C24.6892 69.9074 23.8956 70.8724 23.084 71.8193C22.5159 71.1519 21.9387 70.5116 21.3615 69.8713C22.0108 68.9154 22.6602 67.9415 23.3185 66.9314ZM20.7393 70.7912C21.2894 71.3954 21.8305 72.0086 22.3716 72.5948C21.6261 73.4485 20.8685 74.2872 20.099 75.1109C19.7022 74.5067 19.3144 73.9385 18.9356 73.3704C19.5308 72.5227 20.1351 71.684 20.7393 70.7912ZM23.8505 74.3985C24.3465 75.0027 24.8245 75.6159 25.3025 76.2021C24.4006 77.1039 23.4267 77.9426 22.4437 78.7813L21.3706 77.0859C22.2002 76.2201 23.0299 75.3183 23.8505 74.3804V74.3985ZM21.4427 79.6831L21.073 79.9987L18.7823 81.8926L18.2412 80.639L20.4597 78.0779L21.4427 79.6831ZM23.7874 80.9637C24.8335 80.0619 25.8436 79.16 26.8356 78.2582C32.6484 86.0964 37.4932 94.6081 41.2646 103.608C39.9299 103.981 38.6043 104.387 37.2876 104.826C33.2475 96.9439 28.4047 88.3946 23.7874 80.9456V80.9637ZM49.5613 109.569C59.7552 108.381 70.0592 108.499 80.2231 109.921C79.9706 110.925 79.7361 111.935 79.5197 112.951C73.694 112.635 67.4173 112.473 61.2308 112.473C57.4703 112.473 53.7548 112.536 50.1926 112.654C50.0213 111.598 49.8048 110.579 49.5613 109.551V109.569ZM86.653 108.731C86.9416 107.973 87.2392 107.225 87.5548 106.467C88.7903 106.837 90.0078 107.243 91.2252 107.666L90.2423 109.497C89.0609 109.218 87.8705 108.956 86.653 108.713V108.731ZM92.4698 108.108L92.6321 108.162L95.6983 109.317C95.4277 109.696 95.1572 110.083 94.8866 110.453L91.577 109.813C91.8655 109.236 92.1902 108.658 92.4698 108.09V108.108ZM93.6602 105.872C97.7454 98.2966 102.615 90.063 107.26 82.8395L110.091 85.2653C106.253 92.8411 101.94 100.166 97.1772 107.198L93.6602 105.872ZM112.842 79.4396L110.984 77.2121L111.958 75.7963L113.275 78.4386C113.142 78.7632 112.998 79.0909 112.842 79.4216V79.4396ZM114.186 80.2603L115.159 82.2172L113.951 80.7743L114.186 80.2603ZM110.362 69.3663C109.785 68.4645 109.198 67.5627 108.612 66.6609L110.975 64.7129C111.39 65.6148 111.787 66.5166 112.156 67.3462L110.362 69.3663ZM93.8225 40.391H93.7774C93.2543 39.3629 92.7403 38.3529 92.2443 37.3518L95.049 36.8649C95.6171 37.6585 96.1852 38.4791 96.7624 39.3449L93.8225 40.391ZM84.155 28.1533L83.4426 26.0701L84.8133 28.2345L84.155 28.1533ZM80.5477 27.7746L80.0157 24.7264L80.665 24.9338L81.666 27.8377C81.2872 27.8196 80.8994 27.7836 80.5117 27.7565L80.5477 27.7746ZM79.7271 22.8146L79.5107 21.543L79.9796 22.8867L79.7271 22.8146ZM53.872 22.021L54.4131 19.1171C61.5407 16.34 69.4596 16.3883 76.5527 19.2524L77.0397 22.1923C69.3929 20.7155 61.5398 20.6574 53.872 22.021V22.021ZM50.8509 24.5821L50.3008 27.522L49.2276 27.6032L50.2738 24.7535L50.8509 24.5821ZM51.0313 22.6703L51.383 21.7685L51.2117 22.6703H51.0313ZM46.1435 27.9008L47.397 25.998L46.7296 27.8016L46.1435 27.9008ZM38.5772 36.8198C38.0812 37.7847 37.5581 38.7767 37.0261 39.7687L34.1403 38.6865C34.7265 37.8569 35.2946 37.0633 35.8627 36.2967L38.5772 36.8198ZM21.7854 65.5967C21.1721 66.4986 20.5769 67.4004 19.9817 68.3022L18.2412 66.21C18.629 65.3623 19.0348 64.4965 19.4767 63.6037L21.7854 65.5967ZM19.3505 69.204C18.8455 69.9525 18.3495 70.683 17.8535 71.3954L16.8434 69.3483C17.114 68.6809 17.4146 67.9865 17.7453 67.2651L19.3505 69.204ZM18.2412 74.7051C18.5569 75.174 18.8725 75.6069 19.1431 76.1299L19.0168 76.2652L17.2132 78.3394C17.0689 78.0057 16.9336 77.6721 16.8074 77.3474L18.2412 74.7051ZM16.122 79.647L14.9406 81.0088L15.9236 79.151L16.122 79.647ZM17.5649 82.8936L15.3013 84.7513C15.2562 84.5619 15.2202 84.3816 15.1841 84.2012L17.132 81.9467C17.2492 82.2623 17.4026 82.5779 17.5469 82.8936H17.5649ZM13.7322 86.0499L13.1821 86.5098L13.6961 85.9147C13.7123 85.9585 13.7244 86.0038 13.7322 86.0499V86.0499ZM14.4897 88.6742C16.9913 96.033 20.8213 102.871 25.7894 108.848L23.0119 109.822C17.0984 104.991 13.2532 98.0849 12.2622 90.5139L14.4897 88.6742ZM29.4779 110.201L32.3186 109.191L32.9769 110.155L29.9829 110.679L29.4779 110.201ZM27.8095 111.057L26.3576 111.301L27.6472 110.85L27.8095 111.057ZM33.8427 108.595L36.6834 107.594C36.8457 107.531 37.0171 107.486 37.1794 107.432C37.486 108.027 37.7836 108.622 38.0812 109.236L34.6723 109.831L33.8427 108.595ZM46.3689 114.791L49.7597 114.656L49.8138 114.953L50.2918 117.812C49.2637 117.722 48.2717 117.614 47.3068 117.505L46.3689 114.791ZM79.9075 115.233C79.9075 115.143 79.9526 115.052 79.9706 114.962C81.0888 115.016 82.189 115.088 83.2712 115.161L82.2702 117.839C81.3684 117.929 80.3584 118.01 79.3573 118.082L79.9075 115.233ZM95.085 112.753L97.1051 113.14L94.7153 113.24C94.8415 113.104 94.9588 112.942 95.085 112.78V112.753ZM97.2043 109.831L99.9097 110.859L99.4318 111.292L96.5279 110.733L97.2043 109.831ZM101.804 111.553L102.832 111.941L101.641 111.707L101.804 111.553ZM115.331 89.7113L117.486 91.5149C116.311 99.0413 112.324 105.842 106.331 110.543L103.625 109.533C108.706 103.704 112.679 96.9956 115.349 89.7383L115.331 89.7113ZM113.96 75.2822L113.203 73.7762L113.789 72.6579L114.086 74.5337L113.96 75.2822ZM113.455 65.7591C113.118 65.0075 112.767 64.241 112.4 63.4594L114.808 61.4754C115.006 62.2149 115.159 62.9364 115.295 63.6398L113.455 65.7591ZM114.645 45.7387C116.75 49.3175 118.02 53.3248 118.361 57.4624L115.881 59.5005C113.321 51.5103 109.181 44.1162 103.706 37.7577L106.773 36.6755C110.034 39.0837 112.727 42.1774 114.663 45.7387H114.645ZM101.497 37.6224L98.5029 38.7226C97.9979 37.9741 97.5019 37.2346 97.0059 36.5222L99.8376 36.0352C100.397 36.5402 100.956 37.0813 101.515 37.6585L101.497 37.6224ZM91.2884 32.5722L89.8906 32.4911L88.9166 30.958L89.7463 31.2736L91.2884 32.5722ZM75.8222 14.8064L76.1559 16.8355C69.2694 14.4163 61.7717 14.3687 54.855 16.7002L55.2247 14.6982C58.1023 12.3644 61.7208 11.139 65.4243 11.2443H65.6046C69.3265 11.1739 72.9508 12.4374 75.8222 14.8064V14.8064ZM41.9139 30.5702L41.0121 31.9139L40.958 32.0131L39.6323 32.0672L41.1384 30.8407L41.9139 30.5702ZM33.9148 35.8638C33.4188 36.5492 32.9138 37.2617 32.4088 37.9831L29.5049 36.9009C30.055 36.3418 30.6142 35.8188 31.1733 35.3408L33.9148 35.8638ZM15.7252 60.3572L18.0609 62.3592C17.6731 63.1348 17.3124 63.9013 16.9607 64.6498L15.157 62.5215C15.3194 61.8362 15.5087 61.1237 15.7252 60.3842V60.3572ZM16.4466 71.4856L17.0148 72.6309L16.2392 74.1189L16.113 73.3523L16.4466 71.4856ZM32.2465 112.518L34.4739 112.203L34.8617 112.753L32.3096 112.59L32.2465 112.518ZM39.1724 114.98L40.976 115.097L41.7246 116.27L39.8307 115.548L39.1724 114.98ZM48.0012 119.417L50.6435 119.67L51.1666 122.844C50.391 122.637 49.6515 122.411 48.9481 122.159L48.0012 119.417ZM78.5096 123.024L79.0868 119.904L81.657 119.706L80.674 122.411C79.9435 122.619 79.2221 122.835 78.4645 123.024H78.5096ZM87.9066 116.649L88.637 115.557L90.3685 115.485L89.7373 115.99L87.9066 116.649ZM116.972 63.8652C116.972 63.748 116.927 63.6218 116.9 63.4955L117.558 62.729L116.972 63.8652ZM120.282 57.9584L119.768 58.5626C119.768 58.2018 119.768 57.8321 119.768 57.4624L121.31 56.1908C121.018 56.8175 120.658 57.4102 120.237 57.9584H120.282ZM125.161 39.9851C126.43 42.1238 126.929 44.633 126.573 47.0946C126.216 49.5561 125.027 51.8213 123.204 53.5124C123.597 49.6668 122.797 45.7934 120.912 42.4182C119.028 39.043 116.15 36.3296 112.67 34.6464C115.043 33.998 117.565 34.1729 119.825 35.1426C122.085 36.1122 123.95 37.8192 125.116 39.9851H125.161ZM107.124 34.7726C107.91 34.7081 108.7 34.7384 109.478 34.8628L107.521 35.5482C107.178 35.3137 106.836 35.0883 106.484 34.8809L107.124 34.7726ZM102.164 34.5472L100.803 34.7817L100.406 34.439L102.164 34.5472ZM65.6227 5.49067C67.5619 5.47982 69.4635 6.02546 71.1019 7.06286C72.7403 8.10026 74.0468 9.58588 74.8663 11.3435C72.0034 9.81606 68.813 9.00509 65.5683 8.97997C62.3235 8.95484 59.121 9.71629 56.2348 11.1992C57.0898 9.44947 58.4287 7.98169 60.0926 6.9699C61.7566 5.9581 63.6758 5.44473 65.6227 5.49067V5.49067ZM30.6322 33.7897L30.2624 34.0963L29.027 33.8528L30.6322 33.7897ZM23.0569 33.943C23.3874 33.9248 23.7185 33.9248 24.0489 33.943L24.6442 34.0602C24.3105 34.2496 23.9768 34.457 23.6341 34.6825L21.7764 33.9881C22.2019 33.9462 22.6296 33.9311 23.0569 33.943V33.943ZM6.03066 38.8669C6.98111 37.2039 8.34828 35.8171 9.99756 34.843C11.6468 33.8689 13.5214 33.3412 15.4366 33.3117C16.483 33.3175 17.5237 33.4661 18.5298 33.7536C15.0395 35.3707 12.1267 38.0157 10.1813 41.3342C8.23593 44.6528 7.35097 48.4865 7.64491 52.322C5.89433 50.5921 4.78169 48.3199 4.48852 45.8763C4.19535 43.4327 4.73896 40.9618 6.03066 38.8669V38.8669ZM9.49363 55.0545L10.9726 56.317C10.9726 56.7048 10.9275 57.0746 10.9275 57.4533L10.5217 56.9663C10.1073 56.3703 9.76233 55.7289 9.49363 55.0545V55.0545ZM12.9296 61.5205L13.642 62.3682L13.5608 62.7831L12.9296 61.5205ZM5.84127 106.792C4.85968 105.115 4.38113 103.191 4.46268 101.25C4.54423 99.3089 5.18243 97.4321 6.30119 95.8437C6.38986 99.0748 7.25575 102.237 8.82553 105.063C10.3953 107.888 12.6228 110.294 15.3194 112.076C13.4011 112.184 11.4917 111.745 9.81357 110.809C8.13548 109.874 6.75786 108.48 5.84127 106.792V106.792ZM47.7938 123.385L48.2537 123.556L48.6866 124.792L47.7938 123.385ZM51.401 129.274L51.1485 128.535C51.4912 128.742 51.8429 128.931 52.2127 129.112L52.5554 131.195C52.094 130.619 51.695 129.997 51.365 129.337L51.401 129.274ZM64.7479 142.54H64.6397C62.1675 142.563 59.7611 141.744 57.8157 140.218C55.8704 138.692 54.5019 136.55 53.9351 134.144C57.0283 136.444 60.7945 137.658 64.6487 137.598H64.8561C68.681 137.698 72.4308 136.525 75.5156 134.261C74.9288 136.668 73.5381 138.802 71.5735 140.31C69.609 141.819 67.1883 142.612 64.7118 142.558L64.7479 142.54ZM78.0587 129.481C77.7589 130.121 77.39 130.726 76.9585 131.285L77.3373 129.274C77.68 129.103 78.0136 128.931 78.3293 128.742L78.0587 129.481ZM80.9085 124.819L81.2872 123.8L81.675 123.665L80.9085 124.819ZM123.51 107.901C122.565 109.565 121.168 110.927 119.482 111.83C117.795 112.733 115.887 113.141 113.978 113.005C116.701 111.289 118.973 108.945 120.601 106.169C122.23 103.393 123.169 100.266 123.339 97.0521C124.394 98.6625 124.967 100.541 124.991 102.466C125.015 104.391 124.489 106.283 123.474 107.919L123.51 107.901Z" fill="#131419"/>
</svg>
