<svg width="1099" height="358" viewBox="0 0 1099 358" fill="none" xmlns="http://www.w3.org/2000/svg">
<path d="M307.159 209.84C304.841 208.531 302.547 207.149 300.303 205.767C280.352 193.327 280.352 164.591 300.303 152.175C302.547 150.769 304.841 149.411 307.159 148.101C328.862 135.783 336.309 108.478 323.781 87.1384C311.253 65.7989 283.484 58.4756 261.781 70.7943C260.672 71.4248 259.537 72.0553 258.403 72.6615C236.972 84.277 210.362 69.4121 210.312 45.3809V44.9202C210.312 20.2828 189.991 0.30127 164.934 0.30127C139.878 0.30127 119.557 20.2828 119.557 44.9202C119.557 45.0657 119.557 45.2354 119.557 45.3809C119.507 69.4363 92.8973 84.277 71.4662 72.6615C70.3318 72.0553 69.222 71.4248 68.0876 70.7943C46.3852 58.4756 18.616 65.7747 6.08777 87.1384C-6.44042 108.478 0.982779 135.783 22.7098 148.101C25.028 149.411 27.3216 150.793 29.5658 152.175C49.5172 164.615 49.5172 193.351 29.5658 205.767C27.3216 207.173 25.028 208.531 22.7098 209.84C1.00744 222.159 -6.44042 249.44 6.08777 270.803C18.616 292.167 46.3852 299.466 68.0876 287.148C69.1973 286.517 70.3318 285.887 71.4662 285.28C92.8973 273.665 119.507 288.53 119.557 312.561C119.557 312.706 119.557 312.876 119.557 313.022C119.557 337.659 139.878 357.641 164.934 357.641C189.991 357.641 210.312 337.659 210.312 313.022V312.561C210.362 288.506 236.972 273.665 258.403 285.256C259.537 285.862 260.647 286.493 261.781 287.123C283.484 299.442 311.253 292.143 323.781 270.779C336.309 249.44 328.886 222.135 307.159 209.816V209.84ZM304.545 259.891C300.426 266.924 292.707 271.288 284.421 271.288C280.401 271.288 276.406 270.221 272.879 268.233C240.104 249.634 202.79 239.788 164.934 239.788C127.079 239.788 89.7653 249.634 56.9897 268.233C53.4138 270.27 49.5172 271.288 45.448 271.288C37.1617 271.288 29.4672 266.924 25.324 259.891C18.9366 249.003 22.7345 235.036 33.8076 228.755C100.395 190.95 141.752 120.506 141.752 44.9202C141.752 32.359 152.16 22.1257 164.934 22.1257C177.709 22.1257 188.117 32.359 188.117 44.9202C188.117 120.506 229.474 190.95 296.061 228.755C301.413 231.81 305.26 236.709 306.863 242.601C308.466 248.494 307.652 254.629 304.545 259.891Z" fill="url(#paint0_linear_1178_6146)" style=""/>
<path d="M1063.15 127.215H1098.87V292.57H1063.15V268.759C1050.59 286.286 1031.07 296.869 1005.28 296.869C960.303 296.869 922.933 258.837 922.933 209.892C922.933 160.617 960.303 122.916 1005.28 122.916C1031.07 122.916 1050.59 133.498 1063.15 150.695V127.215ZM1010.9 262.806C1040.67 262.806 1063.15 240.648 1063.15 209.892C1063.15 179.136 1040.67 156.979 1010.9 156.979C981.137 156.979 958.649 179.136 958.649 209.892C958.649 240.648 981.137 262.806 1010.9 262.806Z" fill="white" style="fill:white;fill-opacity:1;"/>
<path d="M862.625 154.995C872.546 132.506 892.719 124.239 913.554 124.239V162.932C890.074 161.278 862.625 172.192 862.625 209.231V292.57H826.908V127.215H862.625V154.995Z" fill="white" style="fill:white;fill-opacity:1;"/>
<path d="M749.427 127.215H785.144V292.57H749.427V271.404C738.514 288.601 720.655 296.869 698.167 296.869C661.128 296.869 634.671 271.735 634.671 228.743V127.215H670.387V225.105C670.387 250.239 684.939 263.467 707.427 263.467C730.907 263.467 749.427 249.577 749.427 215.845V127.215Z" fill="white" style="fill:white;fill-opacity:1;"/>
<path d="M576.329 292.57L560.124 245.94H461.573L445.368 292.57H404.029L488.029 61.0732H533.667L617.337 292.57H576.329ZM474.14 210.223H547.557L510.848 105.719L474.14 210.223Z" fill="white" style="fill:white;fill-opacity:1;"/>
<defs>
<linearGradient id="paint0_linear_1178_6146" x1="229.706" y1="282.746" x2="137.133" y2="60.1483" gradientUnits="userSpaceOnUse">
<stop stop-color="#FFD569" style="stop-color:#FFD569;stop-color:color(display-p3 1.0000 0.8353 0.4118);stop-opacity:1;"/>
<stop offset="0.515056" stop-color="#FC8E4F" style="stop-color:#FC8E4F;stop-color:color(display-p3 0.9882 0.5569 0.3098);stop-opacity:1;"/>
<stop offset="1" stop-color="#FF697B" style="stop-color:#FF697B;stop-color:color(display-p3 1.0000 0.4118 0.4824);stop-opacity:1;"/>
</linearGradient>
</defs>
</svg>
