<svg width="1099" height="358" viewBox="0 0 1099 358" fill="none" xmlns="http://www.w3.org/2000/svg">
<path d="M307.159 209.539C304.841 208.23 302.547 206.847 300.303 205.465C280.352 193.025 280.352 164.29 300.303 151.874C302.547 150.468 304.841 149.11 307.159 147.8C328.862 135.481 336.309 108.177 323.781 86.8372C311.253 65.4977 283.484 58.1743 261.781 70.493C260.672 71.1235 259.537 71.754 258.403 72.3602C236.972 83.9757 210.362 69.1108 210.312 45.0797V44.6189C210.312 19.9815 189.991 0 164.934 0C139.878 0 119.557 19.9815 119.557 44.6189C119.557 44.7644 119.557 44.9342 119.557 45.0797C119.507 69.1351 92.8973 83.9757 71.4662 72.3602C70.3318 71.754 69.222 71.1235 68.0876 70.493C46.3852 58.1743 18.616 65.4734 6.08777 86.8372C-6.44042 108.177 0.982779 135.481 22.7098 147.8C25.028 149.11 27.3216 150.492 29.5658 151.874C49.5172 164.314 49.5172 193.05 29.5658 205.465C27.3216 206.872 25.028 208.23 22.7098 209.539C1.00744 221.858 -6.44042 249.138 6.08777 270.502C18.616 291.866 46.3852 299.165 68.0876 286.846C69.1973 286.216 70.3318 285.585 71.4662 284.979C92.8973 273.364 119.507 288.229 119.557 312.26C119.557 312.405 119.557 312.575 119.557 312.72C119.557 337.358 139.878 357.339 164.934 357.339C189.991 357.339 210.312 337.358 210.312 312.72V312.26C210.362 288.204 236.972 273.364 258.403 284.955C259.537 285.561 260.647 286.192 261.781 286.822C283.484 299.141 311.253 291.842 323.781 270.478C336.309 249.138 328.886 221.834 307.159 209.515V209.539ZM304.545 259.59C300.426 266.622 292.707 270.987 284.421 270.987C280.401 270.987 276.406 269.92 272.879 267.932C240.104 249.332 202.79 239.487 164.934 239.487C127.079 239.487 89.7653 249.332 56.9897 267.932C53.4138 269.969 49.5172 270.987 45.448 270.987C37.1617 270.987 29.4672 266.622 25.324 259.59C18.9366 248.702 22.7345 234.734 33.8076 228.454C100.395 190.649 141.752 120.204 141.752 44.6189C141.752 32.0577 152.16 21.8245 164.934 21.8245C177.709 21.8245 188.117 32.0577 188.117 44.6189C188.117 120.204 229.474 190.649 296.061 228.454C301.413 231.509 305.26 236.408 306.863 242.3C308.466 248.193 307.652 254.328 304.545 259.59Z" fill="black" style="fill:black;fill-opacity:1;"/>
<path d="M1063.15 126.914H1098.87V292.268H1063.15V268.457C1050.59 285.985 1031.07 296.567 1005.28 296.567C960.303 296.567 922.933 258.536 922.933 209.591C922.933 160.315 960.303 122.614 1005.28 122.614C1031.07 122.614 1050.59 133.197 1063.15 150.394V126.914ZM1010.9 262.504C1040.67 262.504 1063.15 240.347 1063.15 209.591C1063.15 178.835 1040.67 156.677 1010.9 156.677C981.137 156.677 958.649 178.835 958.649 209.591C958.649 240.347 981.137 262.504 1010.9 262.504Z" fill="black" style="fill:black;fill-opacity:1;"/>
<path d="M862.625 154.693C872.546 132.205 892.719 123.937 913.554 123.937V162.63C890.074 160.977 862.625 171.89 862.625 208.93V292.268H826.908V126.914H862.625V154.693Z" fill="black" style="fill:black;fill-opacity:1;"/>
<path d="M749.427 126.914H785.144V292.268H749.427V271.103C738.514 288.3 720.655 296.567 698.167 296.567C661.128 296.567 634.671 271.433 634.671 228.441V126.914H670.387V224.803C670.387 249.937 684.939 263.166 707.427 263.166C730.907 263.166 749.427 249.276 749.427 215.544V126.914Z" fill="black" style="fill:black;fill-opacity:1;"/>
<path d="M576.329 292.268L560.124 245.638H461.573L445.368 292.268H404.029L488.029 60.7717H533.667L617.337 292.268H576.329ZM474.14 209.922H547.557L510.848 105.417L474.14 209.922Z" fill="black" style="fill:black;fill-opacity:1;"/>
</svg>
